<?xml version="1.0" encoding="UTF-8"?>
<svg width="294px" height="138px" viewBox="0 0 294 138" version="1.1" xmlns="http://www.w3.org/2000/svg" xmlns:xlink="http://www.w3.org/1999/xlink">
    <!-- Generator: Sketch 57.1 (83088) - https://sketch.com -->
    <title>maintenance</title>
    <desc>Created with Sketch.</desc>
    <defs>
        <linearGradient x1="50%" y1="0%" x2="50%" y2="100%" id="linearGradient-1">
            <stop stop-color="#FFFFFF" offset="0%"></stop>
            <stop stop-color="#F8FBFF" offset="100%"></stop>
        </linearGradient>
        <circle id="path-2" cx="50" cy="50" r="50"></circle>
        <filter x="-6.0%" y="-5.0%" width="112.0%" height="112.0%" filterUnits="objectBoundingBox" id="filter-3">
            <feMorphology radius="0.5" operator="dilate" in="SourceAlpha" result="shadowSpreadOuter1"></feMorphology>
            <feOffset dx="0" dy="0" in="shadowSpreadOuter1" result="shadowOffsetOuter1"></feOffset>
            <feColorMatrix values="0 0 0 0 0.349019608   0 0 0 0 0.411764706   0 0 0 0 0.505882353  0 0 0 0.1 0" type="matrix" in="shadowOffsetOuter1" result="shadowMatrixOuter1"></feColorMatrix>
            <feOffset dx="0" dy="1" in="SourceAlpha" result="shadowOffsetOuter2"></feOffset>
            <feGaussianBlur stdDeviation="1.5" in="shadowOffsetOuter2" result="shadowBlurOuter2"></feGaussianBlur>
            <feColorMatrix values="0 0 0 0 0.349019608   0 0 0 0 0.411764706   0 0 0 0 0.505882353  0 0 0 0.1 0" type="matrix" in="shadowBlurOuter2" result="shadowMatrixOuter2"></feColorMatrix>
            <feOffset dx="0" dy="1" in="SourceAlpha" result="shadowOffsetOuter3"></feOffset>
            <feGaussianBlur stdDeviation="1" in="shadowOffsetOuter3" result="shadowBlurOuter3"></feGaussianBlur>
            <feColorMatrix values="0 0 0 0 0   0 0 0 0 0   0 0 0 0 0  0 0 0 0.0005 0" type="matrix" in="shadowBlurOuter3" result="shadowMatrixOuter3"></feColorMatrix>
            <feMerge>
                <feMergeNode in="shadowMatrixOuter1"></feMergeNode>
                <feMergeNode in="shadowMatrixOuter2"></feMergeNode>
                <feMergeNode in="shadowMatrixOuter3"></feMergeNode>
            </feMerge>
        </filter>
        <path d="M44.04,28.496 C44.136,27.696 44.2,26.864 44.2,26 C44.2,25.136 44.136,24.304 44.008,23.504 L49.416,19.28 C49.896,18.896 50.024,18.192 49.736,17.648 L44.616,8.784 C44.296,8.208 43.624,8.016 43.048,8.208 L36.68,10.768 C35.336,9.744 33.928,8.912 32.36,8.272 L31.4,1.488 C31.304,0.848 30.76,0.4 30.12,0.4 L19.88,0.4 C19.24,0.4 18.728,0.848 18.632,1.488 L17.672,8.272 C16.104,8.912 14.664,9.776 13.352,10.768 L6.984,8.208 C6.408,7.984 5.736,8.208 5.416,8.784 L0.296,17.648 C-0.024,18.224 0.104,18.896 0.616,19.28 L6.024,23.504 C5.896,24.304 5.8,25.168 5.8,26 C5.8,26.832 5.864,27.696 5.992,28.496 L0.584,32.72 C0.104,33.104 -0.024,33.808 0.264,34.352 L5.384,43.216 C5.704,43.792 6.376,43.984 6.952,43.792 L13.32,41.232 C14.664,42.256 16.072,43.088 17.64,43.728 L18.6,50.512 C18.728,51.152 19.24,51.6 19.88,51.6 L30.12,51.6 C30.76,51.6 31.304,51.152 31.368,50.512 L32.328,43.728 C33.896,43.088 35.336,42.224 36.648,41.232 L43.016,43.792 C43.592,44.016 44.264,43.792 44.584,43.216 L49.704,34.352 C50.024,33.776 49.896,33.104 49.384,32.72 L44.04,28.496 L44.04,28.496 Z M25,35.6 C19.72,35.6 15.4,31.28 15.4,26 C15.4,20.72 19.72,16.4 25,16.4 C30.28,16.4 34.6,20.72 34.6,26 C34.6,31.28 30.28,35.6 25,35.6 Z" id="path-4"></path>
    </defs>
    <g id="maintenance" stroke="none" stroke-width="1" fill="none" fill-rule="evenodd">
        <polygon id="Rectangle-Copy-15" fill="#EAEDEF" transform="translate(25.259651, 115.275557) rotate(23.000000) translate(-25.259651, -115.275557) " points="37.5193015 124.525557 13 124.525557 25.2596507 106.025557"></polygon>
        <polygon id="Rectangle-Copy-16" fill="#EAEDEF" transform="translate(247.315447, 56.499429) rotate(-1.000000) translate(-247.315447, -56.499429) " points="254.604969 61.9994289 240.025924 61.9994289 247.315447 50.9994289"></polygon>
        <polygon id="Rectangle-Copy-22" fill="#EAEDEF" transform="translate(16.156341, 51.682799) rotate(-60.000000) translate(-16.156341, -51.682799) " points="21.7891531 55.9327994 10.5235281 55.9327994 16.1563406 47.4327994"></polygon>
        <polygon id="Rectangle-Copy-24" fill="#EAEDEF" transform="translate(243.805321, 125.394372) rotate(-60.000000) translate(-243.805321, -125.394372) " points="249.438133 129.644372 238.172508 129.644372 243.805321 121.144372"></polygon>
        <polygon id="Rectangle-Copy-17" fill="#EAEDEF" transform="translate(81.146010, 21.070408) rotate(131.000000) translate(-81.146010, -21.070408) " points="86.7788223 25.3204084 75.5131973 25.3204084 81.1460098 16.8204084"></polygon>
        <circle id="Oval-Copy-13" fill="#EAEDEF" cx="243.805321" cy="94.258411" r="10.75"></circle>
        <circle id="Oval-Copy-14" fill="#EAEDEF" cx="34.9089817" cy="24.5" r="5.5"></circle>
        <circle id="Oval-Copy-15" fill="#EAEDEF" cx="112.75" cy="109.275557" r="9.25"></circle>
        <circle id="Oval-Copy-16" fill="#EAEDEF" cx="278.75" cy="8.25" r="2.75"></circle>
        <circle id="Oval-Copy-17" fill="#EAEDEF" cx="223.25" cy="18.3204084" r="2.75"></circle>
        <circle id="Oval-Copy-18" fill="#EAEDEF" cx="69.75" cy="112.525557" r="2.75"></circle>
        <rect id="Rectangle-Copy-18" fill="#EAEDEF" transform="translate(190.283747, 43.923042) rotate(-38.000000) translate(-190.283747, -43.923042) " x="179.018122" y="32.6574167" width="22.53125" height="22.53125"></rect>
        <rect id="Rectangle-Copy-19" fill="#EAEDEF" transform="translate(53.146385, 76.507238) rotate(14.000000) translate(-53.146385, -76.507238) " x="43.8963854" y="67.2572383" width="18.5" height="18.5"></rect>
        <rect id="Rectangle-Copy-20" fill="#EAEDEF" transform="translate(193.379335, 128.580454) rotate(-31.000000) translate(-193.379335, -128.580454) " x="189.129335" y="124.330454" width="8.5" height="8.5"></rect>
        <rect id="Rectangle-Copy-25" fill="#EAEDEF" transform="translate(62.905349, 43.225591) rotate(-31.000000) translate(-62.905349, -43.225591) " x="58.6553492" y="38.9755915" width="8.5" height="8.5"></rect>
        <rect id="Rectangle-Copy-21" fill="#EAEDEF" transform="translate(277.454049, 35.831873) rotate(94.000000) translate(-277.454049, -35.831873) " x="273.204049" y="31.5818728" width="8.5" height="8.5"></rect>
        <rect id="Rectangle-Copy-23" fill="#EAEDEF" transform="translate(269.693737, 124.923332) rotate(169.000000) translate(-269.693737, -124.923332) " x="266.943737" y="122.173332" width="5.5" height="5.5"></rect>
        <g id="Group" transform="translate(96.500000, 19.000000)">
            <g id="Oval">
                <use fill="black" fill-opacity="1" filter="url(#filter-3)" xlink:href="#path-2"></use>
                <use fill="url(#linearGradient-1)" fill-rule="evenodd" xlink:href="#path-2"></use>
            </g>
            <g id="ic_settings_20px" transform="translate(25.000000, 24.500000)">
                <mask id="mask-5" fill="white">
                    <use xlink:href="#path-4"></use>
                </mask>
                <g id="Shape" fill-rule="nonzero"></g>
                <rect id="Rectangle" stroke="#979797" fill="#ADB5BD" mask="url(#mask-5)" x="-6.5" y="-5.5" width="63" height="63"></rect>
            </g>
        </g>
    </g>
</svg>